<?xml version="1.0" encoding="UTF-8"?><svg id="Calque_1" xmlns="http://www.w3.org/2000/svg" viewBox="0 0 177.02 177.02"><defs>
<style>.cls-1{fill:#fff;}.cls-2{fill:#111f32;} @media (prefers-color-scheme: dark){.cls-1{fill:#111f32;}.cls-2{fill:#fff;}}</style>
</defs><path class="cls-2" d="M.13,0H177.02V176.9c-.27,0-.55,0-.82,0-58.39,0-116.78,0-175.17,0H.13c0-.38,0-.67,0-.96,0-58.35,0-116.69,0-175.04,0-.3,0-.59,0-.89ZM36.93,90.99c.31,0,.56,0,.81,0,4.98,0,9.97,0,14.95,0,2.93,0,4.74-2.26,4.09-5.05-.41-1.76-2.08-2.98-4.13-2.98-4.98,0-9.97,0-14.95,0h-.75v-11.84h.81c4.65,0,9.29,0,13.94,0,1.48,0,2.96,.02,4.43-.02,1.93-.05,3.53-1.38,3.81-3.1,.45-2.76-1.35-4.9-4.14-4.9-7.73,0-15.46,.04-23.19-.03-2.34-.02-4.49,1.74-4.45,4.45,.06,3.72,0,7.43,0,11.15,0,9.65,0,19.3,0,28.95,0,2.2,1.38,3.85,3.51,4.23,.21,.04,.42,.05,.63,.05,7.88,0,15.75,.01,23.63,0,1.64,0,2.97-.69,3.71-2.2,.69-1.39,.57-2.79-.35-4.07-.93-1.29-2.22-1.78-3.79-1.77-5.91,.02-11.83,0-17.74,0h-.84v-12.87Zm50.44-28.17c-.93-.09-1.98,.36-2.79,1.27-.42,.48-.79,1.05-1.03,1.64-5.76,13.73-11.52,27.47-17.23,41.23-.32,.77-.36,1.75-.25,2.59,.18,1.29,.98,2.22,2.32,2.55,2.12,.54,4-.38,4.86-2.39,1.17-2.73,2.34-5.46,3.48-8.2,.17-.41,.37-.56,.83-.56,6.55,.02,13.09,.02,19.64,0,.42,0,.62,.12,.79,.52,1.11,2.64,2.24,5.27,3.39,7.9,.18,.42,.41,.83,.69,1.2,1.06,1.44,2.73,2.01,4.3,1.49,1.71-.56,2.82-2.01,2.75-3.82-.03-.78-.23-1.59-.53-2.31-5.62-13.45-11.28-26.88-16.91-40.32-.75-1.79-2.03-2.73-4.29-2.8Zm38.19,31.63c.32,0,.57,0,.81,0,3.78,0,7.56-.01,11.34,0,2.19,0,4.21-.57,6.07-1.69,8.2-4.9,10.35-16.35,4.47-24.03-2.84-3.72-6.52-5.77-11.35-5.68-5,.1-10.01,.02-15.01,.02-2.67,0-4.39,1.72-4.39,4.39,0,13.35,0,26.69,0,40.04,0,.38,.03,.76,.09,1.13,.28,1.63,1.49,2.86,3.11,3.19,1.64,.33,3.24-.32,4.14-1.69,.57-.86,.72-1.83,.72-2.84,0-4.01,0-8.02,0-12.04v-.82Z"/><path class="cls-2" d="M.13,0c0,.3,0,.59,0,.89,0,58.35,0,116.69,0,175.04,0,.29,0,.59,0,.96h.9c58.39,0,116.78,0,175.17,0,.27,0,.55,0,.82,0-.02,.04-.04,.12-.06,.12-.17,.01-.34,0-.51,0H0C0,118.21,0,59.39,0,.57c0-.19,.08-.38,.12-.57Z"/><path class="cls-1" d="M36.93,90.99v12.87h.84c5.91,0,11.83,.01,17.74,0,1.56,0,2.86,.48,3.79,1.77,.92,1.28,1.04,2.67,.35,4.07-.74,1.51-2.07,2.2-3.71,2.2-7.88,.02-15.75,0-23.63,0-.21,0-.42,0-.63-.05-2.13-.38-3.51-2.03-3.51-4.23,0-9.65,0-19.3,0-28.95,0-3.72,.06-7.43,0-11.15-.04-2.71,2.11-4.47,4.45-4.45,7.73,.07,15.46,.02,23.19,.03,2.8,0,4.59,2.14,4.14,4.9-.28,1.71-1.88,3.04-3.81,3.1-1.48,.04-2.96,.02-4.43,.02-4.65,0-9.29,0-13.94,0h-.81v11.84h.75c4.98,0,9.97,0,14.95,0,2.05,0,3.71,1.22,4.13,2.98,.65,2.79-1.15,5.04-4.09,5.05-4.98,.01-9.97,0-14.95,0-.25,0-.5,0-.81,0Z"/><path class="cls-1" d="M87.36,62.82c2.26,.07,3.54,1.01,4.29,2.8,5.63,13.44,11.29,26.87,16.91,40.32,.3,.72,.5,1.53,.53,2.31,.07,1.81-1.04,3.26-2.75,3.82-1.57,.51-3.24-.05-4.3-1.49-.27-.37-.5-.78-.69-1.2-1.14-2.63-2.28-5.26-3.39-7.9-.17-.4-.37-.52-.79-.52-6.55,.01-13.09,.01-19.64,0-.46,0-.66,.16-.83,.56-1.14,2.74-2.31,5.47-3.48,8.2-.87,2.01-2.75,2.93-4.86,2.39-1.34-.34-2.14-1.26-2.32-2.55-.12-.84-.07-1.82,.25-2.59,5.71-13.76,11.46-27.49,17.23-41.23,.25-.59,.61-1.16,1.03-1.64,.81-.92,1.86-1.36,2.79-1.27Zm6.92,30.06c-2.32-5.4-4.61-10.74-6.96-16.22l-6.9,16.22h13.86Z"/><path class="cls-1" d="M125.55,94.45v.82c0,4.01,0,8.02,0,12.04,0,1.01-.15,1.98-.72,2.84-.9,1.36-2.5,2.02-4.14,1.69-1.62-.33-2.83-1.56-3.11-3.19-.06-.37-.09-.75-.09-1.13,0-13.35,0-26.69,0-40.04,0-2.67,1.72-4.39,4.39-4.39,5,0,10.01,.08,15.01-.02,4.82-.1,8.51,1.96,11.35,5.68,5.88,7.68,3.73,19.13-4.47,24.03-1.87,1.12-3.89,1.69-6.07,1.69-3.78-.01-7.56,0-11.34,0-.25,0-.5,0-.81,0Zm.05-23.34v15.39h.8c3.61,0,7.22-.02,10.83,.01,1.27,.01,2.29-.45,3.17-1.31,3.53-3.46,3.67-8.91,.31-12.54-.94-1.01-2.07-1.59-3.52-1.57-3.63,.05-7.26,.02-10.89,.02h-.7Z"/><path class="cls-2" d="M94.28,92.88h-13.86l6.9-16.22c2.35,5.48,4.64,10.82,6.96,16.22Z"/><path class="cls-2" d="M125.61,71.11h.7c3.63,0,7.26,.03,10.89-.02,1.45-.02,2.58,.56,3.52,1.57,3.36,3.62,3.22,9.08-.31,12.54-.88,.87-1.91,1.32-3.17,1.31-3.61-.03-7.22-.01-10.83-.01h-.8v-15.39Z"/></svg>